<?xml version="1.0" encoding="UTF-8"?>
<svg xmlns="http://www.w3.org/2000/svg" xmlns:xlink="http://www.w3.org/1999/xlink" width="120px" height="72px" viewBox="0 0 120 72" version="1.1">
<g id="surface1">
<path style=" stroke:none;fill-rule:evenodd;fill:rgb(97.254902%,61.176473%,18.039216%);fill-opacity:1;" d="M 4.769531 0 L 114.4375 0 C 117.070312 0 119.207031 2.148438 119.207031 4.800781 L 119.207031 67.199219 C 119.207031 69.851562 117.070312 72 114.4375 72 L 4.769531 72 C 2.132812 72 0 69.851562 0 67.199219 L 0 4.800781 C 0 2.148438 2.132812 0 4.769531 0 Z M 4.769531 0 "/>
<path style=" stroke:none;fill-rule:evenodd;fill:rgb(100%,100%,100%);fill-opacity:1;" d="M 82.726562 41.65625 C 79.542969 54.453125 66.605469 62.238281 53.832031 59.046875 C 41.0625 55.859375 33.289062 42.898438 36.476562 30.105469 C 39.660156 17.3125 52.59375 9.523438 65.363281 12.714844 C 78.136719 15.90625 85.910156 28.863281 82.726562 41.65625 Z M 82.726562 41.65625 "/>
<path style=" stroke:none;fill-rule:evenodd;fill:rgb(97.254902%,61.176473%,18.039216%);fill-opacity:1;" d="M 70.109375 32.476562 C 70.582031 29.300781 68.167969 27.59375 64.863281 26.453125 L 65.933594 22.148438 L 63.320312 21.496094 L 62.277344 25.6875 C 61.589844 25.515625 60.882812 25.351562 60.179688 25.195312 L 61.230469 20.976562 L 58.617188 20.320312 L 57.542969 24.625 C 56.976562 24.492188 56.417969 24.367188 55.875 24.230469 L 55.878906 24.21875 L 52.269531 23.316406 L 51.574219 26.113281 C 51.574219 26.113281 53.515625 26.558594 53.476562 26.585938 C 54.535156 26.851562 54.726562 27.554688 54.691406 28.109375 L 53.472656 33.015625 C 53.546875 33.03125 53.640625 33.058594 53.746094 33.101562 C 53.65625 33.078125 53.566406 33.054688 53.46875 33.03125 L 51.757812 39.902344 C 51.628906 40.226562 51.300781 40.710938 50.558594 40.523438 C 50.585938 40.5625 48.660156 40.050781 48.660156 40.050781 L 47.359375 43.046875 L 50.761719 43.898438 C 51.394531 44.058594 52.015625 44.226562 52.628906 44.382812 L 51.546875 48.734375 L 54.15625 49.386719 L 55.230469 45.078125 C 55.945312 45.273438 56.636719 45.453125 57.316406 45.621094 L 56.246094 49.910156 L 58.863281 50.5625 L 59.945312 46.21875 C 64.40625 47.0625 67.757812 46.722656 69.171875 42.679688 C 70.308594 39.425781 69.113281 37.550781 66.765625 36.328125 C 68.476562 35.929688 69.765625 34.804688 70.109375 32.476562 Z M 64.132812 40.875 C 63.324219 44.125 57.851562 42.367188 56.082031 41.925781 L 57.515625 36.160156 C 59.289062 36.601562 64.976562 37.480469 64.132812 40.875 Z M 64.941406 32.429688 C 64.203125 35.390625 59.652344 33.886719 58.175781 33.519531 L 59.476562 28.289062 C 60.953125 28.65625 65.707031 29.34375 64.941406 32.429688 Z M 64.941406 32.429688 "/>
</g>
</svg>
