<?xml version="1.0" encoding="UTF-8"?>
<svg xmlns="http://www.w3.org/2000/svg" xmlns:xlink="http://www.w3.org/1999/xlink" width="120px" height="80px" viewBox="0 0 120 80" version="1.1">
<g id="surface1">
<path style=" stroke:none;fill-rule:evenodd;fill:rgb(97.254902%,61.176473%,18.039216%);fill-opacity:1;" d="M 4.800781 0 L 115.199219 0 C 117.851562 0 120 2.386719 120 5.332031 L 120 74.667969 C 120 77.613281 117.851562 80 115.199219 80 L 4.800781 80 C 2.148438 80 0 77.613281 0 74.667969 L 0 5.332031 C 0 2.386719 2.148438 0 4.800781 0 Z M 4.800781 0 "/>
<path style=" stroke:none;fill-rule:evenodd;fill:rgb(100%,100%,100%);fill-opacity:1;" d="M 83.277344 46.285156 C 80.070312 60.5 67.046875 69.152344 54.191406 65.609375 C 41.335938 62.0625 33.511719 47.664062 36.71875 33.453125 C 39.921875 19.234375 52.945312 10.582031 65.800781 14.125 C 78.65625 17.671875 86.484375 32.070312 83.277344 46.285156 Z M 83.277344 46.285156 "/>
<path style=" stroke:none;fill-rule:evenodd;fill:rgb(97.254902%,61.176473%,18.039216%);fill-opacity:1;" d="M 70.574219 36.085938 C 71.054688 32.558594 68.621094 30.660156 65.296875 29.390625 L 66.375 24.609375 L 63.742188 23.882812 L 62.691406 28.542969 C 62 28.351562 61.289062 28.171875 60.582031 27.992188 L 61.640625 23.304688 L 59.007812 22.578125 L 57.929688 27.359375 C 57.355469 27.214844 56.792969 27.074219 56.246094 26.921875 L 56.25 26.90625 L 52.617188 25.90625 L 51.917969 29.015625 C 51.917969 29.015625 53.871094 29.511719 53.832031 29.542969 C 54.898438 29.835938 55.089844 30.617188 55.058594 31.234375 L 53.828125 36.683594 C 53.902344 36.703125 54 36.734375 54.101562 36.78125 C 54.015625 36.753906 53.921875 36.730469 53.824219 36.703125 L 52.101562 44.335938 C 51.972656 44.695312 51.640625 45.234375 50.898438 45.027344 C 50.921875 45.070312 48.984375 44.5 48.984375 44.5 L 47.675781 47.832031 L 51.101562 48.777344 C 51.738281 48.953125 52.363281 49.140625 52.976562 49.3125 L 51.890625 54.148438 L 54.519531 54.875 L 55.597656 50.089844 C 56.316406 50.304688 57.015625 50.503906 57.695312 50.691406 L 56.621094 55.453125 L 59.253906 56.179688 L 60.34375 51.351562 C 64.835938 52.292969 68.210938 51.914062 69.632812 47.421875 C 70.777344 43.808594 69.574219 41.722656 67.210938 40.363281 C 68.933594 39.921875 70.230469 38.671875 70.574219 36.085938 Z M 64.558594 45.414062 C 63.746094 49.03125 58.238281 47.078125 56.453125 46.585938 L 57.898438 40.175781 C 59.6875 40.671875 65.410156 41.644531 64.558594 45.414062 Z M 65.375 36.035156 C 64.632812 39.324219 60.046875 37.652344 58.5625 37.242188 L 59.875 31.429688 C 61.359375 31.839844 66.148438 32.605469 65.375 36.035156 Z M 65.375 36.035156 "/>
</g>
</svg>
